<svg id="svg" version="1.1" width="400" height="43.22766570605187" viewBox="0 0 400 43.22766570605187" xmlns="http://www.w3.org/2000/svg" xmlns:xlink="http://www.w3.org/1999/xlink" ><g id="svgg"><path id="path0" d="M168.495 9.532 L 168.120 10.083 168.577 9.614 C 168.828 9.356,168.997 9.108,168.952 9.063 C 168.907 9.018,168.701 9.229,168.495 9.532 M182.250 34.031 C 181.883 34.415,181.749 34.616,181.952 34.478 C 182.284 34.252,183.102 33.333,182.970 33.333 C 182.941 33.334,182.617 33.648,182.250 34.031 M141.970 35.625 C 145.025 35.650,149.975 35.650,152.970 35.625 C 155.966 35.599,153.467 35.579,147.417 35.579 C 141.367 35.579,138.916 35.599,141.970 35.625 M173.150 40.384 C 173.224 40.458,173.727 40.494,174.267 40.465 L 175.250 40.412 174.133 40.331 C 173.518 40.287,173.076 40.310,173.150 40.384 M177.127 40.451 C 177.334 40.491,177.634 40.490,177.794 40.448 C 177.953 40.406,177.783 40.374,177.417 40.375 C 177.050 40.377,176.920 40.411,177.127 40.451 " stroke="none" fill="#000000" fill-rule="evenodd"></path><path id="path1" d="M172.583 3.167 C 172.527 3.258,172.184 3.333,171.821 3.333 C 171.459 3.333,171.032 3.399,170.873 3.479 C 170.714 3.560,170.133 3.758,169.583 3.920 C 167.073 4.659,164.605 6.741,163.562 9.000 C 163.414 9.321,163.227 9.714,163.146 9.873 C 163.066 10.032,163.000 10.309,163.000 10.488 C 163.000 10.667,162.925 10.860,162.833 10.917 C 162.601 11.061,162.622 15.087,162.859 15.822 C 163.340 17.312,163.745 18.147,164.284 18.766 C 164.515 19.032,164.817 19.419,164.955 19.625 C 165.092 19.831,165.309 20.000,165.436 20.000 C 165.563 20.000,165.667 20.058,165.667 20.129 C 165.667 20.200,165.929 20.399,166.250 20.572 C 166.571 20.744,166.833 20.949,166.833 21.026 C 166.833 21.103,166.921 21.167,167.029 21.167 C 167.136 21.167,167.342 21.269,167.487 21.394 C 167.632 21.519,168.500 21.901,169.417 22.242 C 170.333 22.584,171.233 22.926,171.417 23.002 C 171.809 23.166,172.384 23.296,173.750 23.529 C 174.300 23.622,174.880 23.767,175.039 23.850 C 175.199 23.932,175.550 24.000,175.821 24.000 C 176.092 24.000,176.360 24.075,176.417 24.167 C 176.473 24.258,176.736 24.333,177.000 24.333 C 177.264 24.333,177.521 24.398,177.570 24.478 C 177.619 24.558,177.964 24.672,178.337 24.731 C 178.710 24.791,179.143 24.906,179.299 24.987 C 179.455 25.068,180.071 25.362,180.667 25.641 C 181.818 26.180,183.246 27.429,183.533 28.149 C 183.878 29.013,184.098 30.857,183.908 31.296 C 183.839 31.454,183.756 31.724,183.723 31.896 C 183.524 32.924,181.805 35.000,181.153 35.000 C 181.056 35.000,180.864 35.112,180.726 35.250 C 180.589 35.387,180.336 35.500,180.165 35.500 C 179.993 35.500,179.807 35.575,179.750 35.667 C 179.693 35.758,179.426 35.833,179.157 35.833 C 178.887 35.833,178.667 35.912,178.667 36.008 C 178.667 36.364,172.219 36.035,171.742 35.654 C 171.646 35.577,171.252 35.464,170.867 35.403 C 170.482 35.341,170.167 35.225,170.167 35.145 C 170.167 35.065,170.061 35.000,169.932 35.000 C 169.652 35.000,167.940 34.141,167.861 33.960 C 167.831 33.890,167.736 33.833,167.650 33.833 C 167.456 33.833,165.177 32.199,164.817 31.802 C 164.171 31.088,163.816 31.151,163.006 32.124 C 162.590 32.624,162.045 33.269,161.794 33.558 C 161.212 34.229,161.212 34.718,161.792 35.153 C 162.368 35.585,162.425 35.629,163.325 36.335 C 164.053 36.906,164.502 37.202,165.000 37.440 C 165.137 37.505,165.287 37.603,165.333 37.656 C 165.475 37.821,167.243 38.667,167.447 38.667 C 167.552 38.667,167.664 38.723,167.694 38.792 C 167.773 38.968,169.343 39.502,169.782 39.501 C 169.983 39.500,170.193 39.575,170.250 39.667 C 170.307 39.758,170.559 39.833,170.810 39.833 C 171.061 39.833,171.338 39.899,171.425 39.980 C 171.644 40.183,176.025 40.501,177.250 40.403 C 179.149 40.251,180.007 40.123,180.097 39.978 C 180.146 39.899,180.402 39.833,180.667 39.833 C 180.931 39.833,181.193 39.758,181.250 39.667 C 181.307 39.575,181.483 39.500,181.641 39.500 C 181.971 39.500,184.043 38.451,184.667 37.969 C 185.517 37.311,186.833 35.950,186.833 35.729 C 186.833 35.603,186.898 35.500,186.976 35.500 C 187.172 35.500,188.000 33.877,188.000 33.494 C 188.000 33.325,188.075 33.140,188.167 33.083 C 188.258 33.027,188.333 32.764,188.333 32.500 C 188.333 32.236,188.398 31.980,188.477 31.931 C 188.700 31.793,188.708 29.052,188.489 28.100 C 188.047 26.184,187.506 25.139,186.250 23.769 C 185.398 22.840,183.316 21.500,182.725 21.500 C 182.601 21.500,182.500 21.437,182.500 21.360 C 182.500 21.284,182.069 21.081,181.542 20.910 C 181.015 20.738,180.512 20.539,180.425 20.466 C 180.338 20.393,180.072 20.333,179.833 20.333 C 179.595 20.333,179.329 20.271,179.242 20.195 C 179.001 19.984,177.861 19.692,176.787 19.566 C 176.257 19.504,175.784 19.389,175.735 19.310 C 175.687 19.231,175.431 19.167,175.167 19.167 C 174.902 19.167,174.640 19.092,174.583 19.000 C 174.527 18.908,174.316 18.834,174.115 18.834 C 173.541 18.835,172.030 18.306,170.260 17.483 C 169.487 17.124,168.507 16.283,167.754 15.332 C 166.963 14.333,167.242 10.972,168.203 9.927 C 168.366 9.749,168.500 9.544,168.500 9.471 C 168.500 9.398,168.819 9.131,169.208 8.879 C 169.598 8.626,169.954 8.381,170.000 8.335 C 170.694 7.625,176.555 6.928,177.222 7.475 C 177.329 7.563,177.848 7.688,178.375 7.753 C 178.902 7.818,179.333 7.938,179.333 8.019 C 179.333 8.100,179.447 8.167,179.586 8.167 C 179.724 8.167,179.968 8.233,180.127 8.315 C 180.286 8.396,180.717 8.603,181.083 8.773 C 181.450 8.944,181.787 9.121,181.833 9.167 C 181.879 9.212,182.179 9.394,182.500 9.571 C 183.601 10.177,183.713 10.251,184.099 10.625 C 184.775 11.281,185.357 10.996,186.269 9.563 C 186.437 9.299,186.708 8.962,186.871 8.814 C 187.033 8.666,187.167 8.459,187.167 8.355 C 187.167 8.252,187.242 8.167,187.333 8.167 C 187.425 8.167,187.500 8.035,187.500 7.874 C 187.500 7.409,186.572 6.651,184.917 5.762 C 184.733 5.664,184.546 5.544,184.500 5.496 C 184.239 5.224,183.466 4.833,183.186 4.833 C 183.007 4.833,182.836 4.768,182.806 4.689 C 182.729 4.489,180.290 3.667,179.774 3.667 C 179.542 3.667,179.307 3.592,179.250 3.500 C 179.193 3.408,178.743 3.333,178.250 3.333 C 177.757 3.333,177.307 3.258,177.250 3.167 C 177.113 2.945,172.720 2.945,172.583 3.167 M44.333 5.750 L 44.333 7.833 50.333 7.833 L 56.333 7.833 56.333 23.833 L 56.333 39.833 58.667 39.833 L 61.000 39.833 61.000 23.833 L 61.000 7.833 67.000 7.833 L 73.000 7.833 73.000 5.750 L 73.000 3.667 58.667 3.667 L 44.333 3.667 44.333 5.750 M78.000 21.750 L 78.000 39.833 80.250 39.833 L 82.500 39.833 82.500 21.750 L 82.500 3.667 80.250 3.667 L 78.000 3.667 78.000 21.750 M89.833 21.750 L 89.833 39.833 92.083 39.833 L 94.333 39.833 94.339 25.792 C 94.344 11.799,94.346 11.751,94.672 12.167 C 94.852 12.396,95.060 12.658,95.133 12.750 C 95.207 12.842,95.410 13.160,95.586 13.458 C 95.762 13.756,95.964 14.000,96.036 14.000 C 96.108 14.000,96.167 14.080,96.167 14.178 C 96.167 14.276,96.354 14.601,96.583 14.902 C 96.813 15.202,97.000 15.500,97.000 15.564 C 97.000 15.675,97.161 15.893,97.625 16.411 C 97.740 16.538,97.833 16.696,97.833 16.760 C 97.833 16.825,97.965 16.999,98.125 17.147 C 98.285 17.295,98.558 17.694,98.730 18.034 C 98.903 18.373,99.184 18.802,99.355 18.985 C 99.527 19.169,99.667 19.392,99.667 19.481 C 99.667 19.570,99.762 19.742,99.878 19.863 C 100.220 20.218,101.333 21.784,101.333 21.909 C 101.333 21.972,101.427 22.128,101.542 22.256 C 102.003 22.770,102.167 22.991,102.167 23.098 C 102.167 23.160,102.298 23.332,102.458 23.480 C 102.619 23.629,102.891 24.028,103.064 24.367 C 103.236 24.707,103.518 25.135,103.689 25.319 C 103.860 25.502,104.000 25.719,104.000 25.801 C 104.000 25.882,104.149 26.121,104.332 26.332 C 104.514 26.542,105.021 27.247,105.457 27.899 C 105.893 28.550,106.306 29.108,106.375 29.139 C 106.444 29.169,106.500 29.269,106.500 29.359 C 106.500 30.095,107.562 30.143,107.970 29.425 C 108.124 29.154,108.419 28.757,108.625 28.542 C 108.831 28.327,109.000 28.042,109.000 27.909 C 109.000 27.776,109.056 27.667,109.125 27.666 C 109.194 27.666,109.472 27.310,109.743 26.875 C 110.014 26.439,110.278 26.046,110.329 26.000 C 110.528 25.824,112.500 22.830,112.500 22.705 C 112.500 22.633,112.650 22.465,112.833 22.333 C 113.017 22.201,113.167 22.002,113.167 21.892 C 113.167 21.781,113.267 21.590,113.391 21.467 C 113.514 21.343,113.825 20.907,114.082 20.496 C 114.339 20.086,114.595 19.712,114.650 19.667 C 114.705 19.621,114.825 19.459,114.917 19.306 C 115.008 19.154,115.477 18.463,115.958 17.770 C 116.440 17.078,116.833 16.461,116.833 16.400 C 116.833 16.339,116.973 16.168,117.143 16.020 C 117.313 15.871,117.506 15.581,117.571 15.375 C 117.636 15.169,117.759 15.000,117.845 15.000 C 117.930 15.000,118.000 14.887,118.000 14.750 C 118.000 14.612,118.058 14.500,118.129 14.500 C 118.200 14.500,118.399 14.237,118.572 13.917 C 118.744 13.596,118.949 13.333,119.026 13.333 C 119.103 13.333,119.167 13.255,119.167 13.160 C 119.167 13.065,119.335 12.758,119.542 12.479 L 119.917 11.972 120.000 25.861 L 120.083 39.750 122.375 39.796 L 124.667 39.843 124.667 21.755 L 124.667 3.667 122.360 3.667 L 120.052 3.667 119.738 4.250 C 119.566 4.571,119.366 4.833,119.295 4.833 C 119.225 4.833,119.167 4.905,119.167 4.993 C 119.167 5.123,118.215 6.601,117.712 7.250 C 117.641 7.342,117.477 7.623,117.347 7.875 C 117.217 8.127,117.048 8.333,116.972 8.333 C 116.896 8.333,116.833 8.434,116.833 8.557 C 116.833 8.681,116.650 8.995,116.426 9.256 C 116.202 9.516,115.885 9.978,115.721 10.282 C 115.558 10.585,115.366 10.833,115.295 10.833 C 115.225 10.833,115.167 10.946,115.167 11.083 C 115.167 11.221,115.097 11.333,115.011 11.333 C 114.926 11.333,114.812 11.470,114.759 11.637 C 114.706 11.804,114.530 12.086,114.368 12.262 C 114.206 12.439,113.857 12.958,113.593 13.417 C 113.329 13.875,113.067 14.287,113.011 14.333 C 112.955 14.379,112.574 14.942,112.164 15.583 C 111.754 16.225,111.362 16.775,111.292 16.806 C 111.223 16.836,111.167 16.949,111.166 17.056 C 111.166 17.163,110.979 17.468,110.750 17.734 C 110.521 18.001,110.333 18.268,110.333 18.328 C 110.333 18.388,110.202 18.583,110.042 18.760 C 109.881 18.938,109.602 19.365,109.420 19.708 C 109.239 20.052,109.033 20.333,108.962 20.333 C 108.891 20.333,108.833 20.414,108.833 20.512 C 108.833 20.610,108.740 20.795,108.625 20.923 C 108.155 21.446,108.000 21.659,107.994 21.785 C 107.976 22.219,107.000 22.927,107.000 22.505 C 107.000 22.312,105.308 19.775,105.126 19.694 C 105.057 19.664,105.000 19.565,105.000 19.475 C 105.000 19.385,104.813 19.065,104.583 18.765 C 104.354 18.464,104.167 18.132,104.167 18.026 C 104.167 17.920,104.097 17.833,104.011 17.833 C 103.926 17.833,103.812 17.697,103.759 17.529 C 103.706 17.362,103.525 17.078,103.357 16.898 C 103.189 16.717,102.579 15.826,102.000 14.917 C 101.421 14.008,100.883 13.186,100.803 13.090 C 100.522 12.755,98.833 10.247,98.721 10.000 C 98.659 9.862,98.561 9.712,98.505 9.667 C 98.448 9.621,98.075 9.058,97.676 8.417 C 97.276 7.775,96.892 7.212,96.821 7.165 C 96.750 7.118,96.515 6.781,96.299 6.415 C 96.082 6.049,95.608 5.282,95.244 4.710 L 94.583 3.670 92.208 3.669 L 89.833 3.667 89.833 21.750 M131.833 21.750 L 131.833 39.833 145.083 39.833 L 158.333 39.833 158.333 37.750 L 158.333 35.667 147.417 35.667 L 136.500 35.667 136.500 29.668 L 136.500 23.669 146.208 23.626 L 155.917 23.583 155.917 21.583 L 155.917 19.583 146.208 19.540 L 136.500 19.497 136.500 13.667 L 136.500 7.836 147.375 7.793 L 158.250 7.750 158.297 5.708 L 158.344 3.667 145.088 3.667 L 131.833 3.667 131.833 21.750 " stroke="none" fill="#383839" fill-rule="evenodd"></path><path id="path2" d="" stroke="none" fill="#003399" fill-rule="evenodd"></path><path id="path3" d="M238.458 2.947 C 238.023 2.986,237.667 3.089,237.667 3.176 C 237.667 3.262,237.404 3.333,237.083 3.333 C 236.762 3.333,236.500 3.408,236.500 3.500 C 236.500 3.592,236.343 3.667,236.150 3.667 C 235.958 3.667,235.564 3.772,235.275 3.900 C 234.986 4.028,234.506 4.234,234.208 4.357 C 233.910 4.481,233.667 4.638,233.667 4.707 C 233.667 4.777,233.547 4.833,233.401 4.833 C 233.146 4.833,232.174 5.308,232.000 5.517 C 231.954 5.572,231.598 5.816,231.208 6.061 C 230.819 6.305,230.500 6.578,230.500 6.669 C 230.500 6.759,230.387 6.833,230.248 6.833 C 229.780 6.833,226.167 10.628,226.167 11.120 C 226.167 11.237,226.102 11.333,226.023 11.333 C 225.944 11.333,225.587 11.915,225.231 12.625 C 224.875 13.335,224.527 13.942,224.458 13.972 C 224.390 14.003,224.333 14.167,224.333 14.337 C 224.333 14.508,224.263 14.691,224.176 14.744 C 224.090 14.797,223.969 15.178,223.907 15.589 C 223.845 16.001,223.729 16.378,223.647 16.429 C 223.566 16.479,223.500 16.725,223.500 16.977 C 223.500 17.228,223.406 17.527,223.292 17.642 C 223.137 17.797,223.083 18.876,223.083 21.869 C 223.083 24.937,223.133 25.905,223.292 25.958 C 223.406 25.997,223.500 26.284,223.500 26.597 C 223.500 26.910,223.565 27.167,223.645 27.167 C 223.725 27.167,223.839 27.470,223.898 27.841 C 223.958 28.211,224.075 28.643,224.158 28.799 C 224.242 28.955,224.522 29.552,224.780 30.125 C 225.038 30.698,225.306 31.167,225.375 31.167 C 225.444 31.167,225.500 31.240,225.500 31.330 C 225.500 31.557,226.592 33.242,227.136 33.855 C 229.192 36.173,230.840 37.484,233.083 38.590 C 233.633 38.862,234.123 39.136,234.172 39.200 C 234.220 39.265,234.576 39.368,234.963 39.430 C 235.350 39.492,235.667 39.608,235.667 39.688 C 235.667 39.768,235.854 39.833,236.083 39.833 C 236.313 39.833,236.500 39.891,236.500 39.961 C 236.500 40.198,238.245 40.531,239.962 40.621 C 240.904 40.670,241.714 40.776,241.764 40.855 C 241.889 41.058,243.667 41.037,243.667 40.833 C 243.667 40.737,244.215 40.662,244.958 40.657 C 245.669 40.651,246.625 40.572,247.083 40.481 C 247.542 40.390,248.161 40.273,248.460 40.222 C 248.759 40.171,249.044 40.063,249.095 39.982 C 249.145 39.900,249.369 39.833,249.593 39.833 C 249.817 39.833,250.000 39.762,250.000 39.674 C 250.000 39.587,250.263 39.466,250.585 39.405 C 250.907 39.345,251.211 39.229,251.262 39.148 C 251.312 39.066,251.499 39.000,251.677 39.000 C 251.854 39.000,252.001 38.944,252.002 38.875 C 252.002 38.806,252.340 38.602,252.752 38.421 C 253.163 38.240,253.500 38.034,253.500 37.963 C 253.500 37.892,253.612 37.833,253.750 37.833 C 253.887 37.833,254.000 37.758,254.000 37.667 C 254.000 37.575,254.095 37.500,254.210 37.500 C 254.326 37.500,254.622 37.313,254.869 37.083 C 255.117 36.854,255.359 36.667,255.408 36.667 C 255.680 36.667,258.072 34.295,258.456 33.645 C 258.611 33.382,258.795 33.167,258.865 33.167 C 258.935 33.167,259.116 32.923,259.269 32.625 C 259.422 32.327,259.592 32.046,259.648 32.000 C 259.958 31.747,261.167 29.306,261.167 28.935 C 261.167 28.787,261.242 28.667,261.333 28.667 C 261.425 28.667,261.500 28.484,261.500 28.260 C 261.500 28.036,261.575 27.807,261.667 27.750 C 261.758 27.693,261.833 27.479,261.833 27.273 C 261.833 27.068,261.908 26.825,261.999 26.734 C 262.091 26.643,262.214 25.878,262.274 25.034 C 262.334 24.190,262.447 23.500,262.525 23.500 C 262.603 23.500,262.667 22.675,262.667 21.667 C 262.667 20.658,262.603 19.833,262.525 19.833 C 262.447 19.833,262.334 19.143,262.274 18.299 C 262.214 17.456,262.091 16.691,261.999 16.599 C 261.908 16.508,261.833 16.265,261.833 16.060 C 261.833 15.854,261.758 15.640,261.667 15.583 C 261.575 15.527,261.500 15.335,261.500 15.157 C 261.500 14.979,261.435 14.833,261.355 14.833 C 261.275 14.833,261.161 14.533,261.103 14.167 C 261.044 13.800,260.922 13.500,260.831 13.500 C 260.741 13.500,260.667 13.350,260.667 13.167 C 260.667 12.983,260.608 12.833,260.537 12.833 C 260.465 12.833,260.320 12.627,260.215 12.375 C 260.025 11.920,259.494 10.993,259.332 10.833 C 259.286 10.787,259.025 10.450,258.752 10.083 C 258.070 9.167,255.315 6.500,255.049 6.500 C 254.931 6.500,254.833 6.430,254.833 6.345 C 254.833 6.259,254.665 6.136,254.458 6.072 C 254.252 6.008,254.046 5.905,254.000 5.845 C 253.801 5.580,252.859 5.013,252.448 4.910 C 252.202 4.848,252.000 4.730,252.000 4.649 C 252.000 4.567,251.850 4.500,251.667 4.500 C 251.483 4.500,251.333 4.435,251.333 4.356 C 251.333 4.277,250.902 4.085,250.375 3.930 C 249.848 3.774,249.286 3.577,249.127 3.490 C 248.968 3.404,248.664 3.333,248.452 3.333 C 248.240 3.333,247.973 3.240,247.859 3.126 C 247.652 2.918,240.323 2.779,238.458 2.947 M280.417 2.946 C 280.050 2.988,279.679 3.092,279.592 3.178 C 279.505 3.263,279.265 3.333,279.060 3.333 C 278.854 3.333,278.640 3.408,278.583 3.500 C 278.527 3.592,278.290 3.667,278.057 3.667 C 277.610 3.667,277.160 3.843,275.208 4.787 C 274.544 5.108,274.000 5.437,274.000 5.519 C 274.000 5.600,273.850 5.667,273.667 5.667 C 273.483 5.667,273.333 5.744,273.333 5.839 C 273.333 5.933,273.188 6.065,273.011 6.130 C 272.371 6.367,270.176 8.366,269.333 9.479 C 269.104 9.781,268.823 10.129,268.708 10.252 C 268.594 10.376,268.500 10.522,268.500 10.578 C 268.500 10.635,268.369 10.822,268.208 10.994 C 268.047 11.167,267.585 11.970,267.180 12.779 C 266.150 14.838,266.167 14.801,266.167 15.081 C 266.167 15.220,266.092 15.333,266.000 15.333 C 265.908 15.333,265.833 15.543,265.833 15.800 C 265.833 16.057,265.760 16.340,265.671 16.429 C 265.582 16.518,265.459 17.133,265.397 17.795 C 265.336 18.458,265.221 19.000,265.143 19.000 C 264.938 19.000,264.961 24.456,265.167 24.583 C 265.258 24.640,265.335 25.001,265.337 25.385 C 265.339 25.769,265.421 26.383,265.518 26.750 C 265.615 27.117,265.734 27.623,265.783 27.875 C 265.831 28.127,265.938 28.333,266.019 28.333 C 266.100 28.333,266.167 28.521,266.167 28.750 C 266.167 28.979,266.242 29.167,266.333 29.167 C 266.425 29.167,266.500 29.317,266.500 29.501 C 266.500 29.868,267.329 31.500,267.515 31.500 C 267.578 31.500,267.675 31.679,267.730 31.897 C 267.785 32.116,268.056 32.536,268.332 32.832 C 268.608 33.127,268.833 33.444,268.833 33.536 C 268.833 33.946,272.708 37.500,273.156 37.500 C 273.253 37.500,273.334 37.556,273.334 37.625 C 273.334 37.694,273.765 37.975,274.292 38.250 C 274.819 38.525,275.275 38.806,275.306 38.875 C 275.336 38.944,275.500 39.000,275.671 39.000 C 275.841 39.000,276.023 39.068,276.074 39.152 C 276.126 39.236,276.468 39.355,276.834 39.417 C 277.200 39.479,277.500 39.598,277.500 39.681 C 277.500 39.765,277.683 39.833,277.907 39.833 C 278.131 39.833,278.355 39.900,278.405 39.982 C 278.456 40.063,278.741 40.171,279.040 40.222 C 279.339 40.273,279.958 40.390,280.417 40.481 C 280.875 40.572,281.864 40.651,282.615 40.657 C 283.366 40.662,284.027 40.742,284.083 40.833 C 284.208 41.035,286.000 41.059,286.000 40.858 C 286.000 40.780,287.022 40.674,288.270 40.621 C 289.539 40.568,290.620 40.447,290.720 40.346 C 290.819 40.248,291.148 40.167,291.450 40.167 C 291.753 40.167,292.000 40.092,292.000 40.000 C 292.000 39.908,292.151 39.833,292.336 39.833 C 292.520 39.833,292.801 39.768,292.961 39.687 C 293.120 39.607,293.681 39.407,294.208 39.244 C 294.735 39.080,295.167 38.883,295.167 38.806 C 295.167 38.729,295.259 38.667,295.373 38.667 C 295.572 38.667,297.331 37.841,297.500 37.668 C 297.634 37.532,298.222 37.178,298.583 37.017 C 298.767 36.935,299.083 36.729,299.286 36.559 C 299.489 36.389,299.958 36.029,300.328 35.760 L 301.000 35.269 301.000 26.801 L 301.000 18.333 292.436 18.333 L 283.872 18.333 283.772 18.708 C 283.641 19.197,283.641 25.470,283.772 25.958 C 283.872 26.332,283.881 26.333,287.436 26.333 L 291.000 26.333 291.000 28.302 L 291.000 30.271 290.417 30.500 C 290.096 30.626,289.833 30.780,289.833 30.843 C 289.833 30.906,289.518 31.008,289.133 31.069 C 288.748 31.131,288.342 31.257,288.231 31.349 C 287.729 31.766,281.333 31.257,281.333 30.800 C 281.333 30.727,281.221 30.667,281.083 30.667 C 280.946 30.667,280.833 30.600,280.833 30.518 C 280.833 30.436,280.646 30.322,280.417 30.265 C 280.188 30.207,280.000 30.087,280.000 29.997 C 280.000 29.907,279.893 29.833,279.763 29.833 C 279.216 29.833,277.340 27.559,276.703 26.125 C 276.591 25.873,276.406 25.468,276.292 25.224 C 276.032 24.673,275.995 18.717,276.250 18.536 C 276.342 18.470,276.709 17.826,277.065 17.105 C 278.032 15.148,280.579 12.833,281.765 12.833 C 281.894 12.833,282.000 12.758,282.000 12.667 C 282.000 12.575,282.221 12.500,282.490 12.500 C 282.760 12.500,283.027 12.425,283.083 12.333 C 283.143 12.237,284.030 12.167,285.177 12.167 C 286.392 12.167,287.167 12.232,287.167 12.333 C 287.167 12.425,287.393 12.500,287.669 12.500 C 287.945 12.500,288.301 12.569,288.461 12.653 C 289.039 12.958,289.971 13.333,290.150 13.333 C 290.251 13.333,290.333 13.408,290.333 13.500 C 290.333 13.592,290.483 13.667,290.667 13.667 C 290.850 13.667,291.000 13.740,291.000 13.830 C 291.000 13.920,291.188 14.041,291.417 14.098 C 291.646 14.156,291.833 14.254,291.833 14.315 C 291.833 14.377,292.040 14.551,292.292 14.701 C 292.544 14.851,292.930 15.143,293.149 15.349 L 293.548 15.724 294.149 15.061 C 295.171 13.934,296.247 12.653,296.303 12.499 C 296.332 12.417,296.632 12.063,296.969 11.710 C 297.307 11.358,297.733 10.862,297.917 10.607 C 298.100 10.353,298.475 9.900,298.750 9.602 C 299.427 8.868,299.833 8.351,299.833 8.224 C 299.833 7.909,296.904 5.667,296.493 5.667 C 296.405 5.667,296.333 5.609,296.333 5.539 C 296.333 5.405,295.117 4.833,294.832 4.833 C 294.741 4.833,294.667 4.758,294.667 4.667 C 294.667 4.575,294.517 4.500,294.333 4.500 C 294.150 4.500,294.000 4.437,294.000 4.360 C 294.000 4.284,293.569 4.087,293.042 3.923 C 292.515 3.759,291.953 3.560,291.794 3.479 C 291.635 3.399,291.331 3.333,291.119 3.333 C 290.907 3.333,290.643 3.243,290.532 3.132 C 290.328 2.928,281.922 2.774,280.417 2.946 M15.575 4.083 C 15.513 4.496,15.396 4.833,15.314 4.833 C 15.233 4.833,15.167 5.015,15.167 5.236 C 15.167 5.458,15.110 5.664,15.042 5.694 C 14.881 5.766,14.331 7.326,14.333 7.708 C 14.333 7.869,14.258 8.000,14.167 8.000 C 14.075 8.000,14.000 8.188,14.000 8.417 C 14.000 8.646,13.934 8.833,13.852 8.833 C 13.771 8.833,13.654 9.171,13.592 9.583 C 13.530 9.996,13.409 10.333,13.323 10.333 C 13.237 10.333,13.167 10.521,13.167 10.750 C 13.167 10.979,13.092 11.167,13.000 11.167 C 12.908 11.167,12.833 11.350,12.833 11.573 C 12.833 11.797,12.765 12.023,12.681 12.074 C 12.597 12.126,12.478 12.468,12.417 12.834 C 12.355 13.200,12.236 13.500,12.152 13.500 C 12.068 13.500,12.000 13.688,12.000 13.917 C 12.000 14.146,11.934 14.333,11.852 14.333 C 11.771 14.333,11.662 14.540,11.610 14.792 C 11.386 15.873,11.081 16.833,10.962 16.833 C 10.891 16.833,10.833 16.971,10.833 17.139 C 10.833 17.307,10.785 17.493,10.725 17.552 C 10.569 17.708,10.012 19.367,10.005 19.694 C 10.002 19.847,9.944 19.997,9.875 20.028 C 9.714 20.099,9.165 21.659,9.166 22.042 C 9.166 22.202,9.092 22.333,9.000 22.333 C 8.908 22.333,8.833 22.484,8.833 22.669 C 8.833 22.854,8.765 23.135,8.681 23.294 C 8.296 24.023,8.000 24.831,8.000 25.150 C 8.000 25.343,7.925 25.500,7.833 25.500 C 7.742 25.500,7.667 25.651,7.667 25.836 C 7.667 26.020,7.594 26.301,7.505 26.461 C 7.286 26.854,6.833 28.288,6.833 28.589 C 6.833 28.723,6.758 28.833,6.667 28.833 C 6.575 28.833,6.500 28.979,6.500 29.157 C 6.500 29.335,6.432 29.522,6.349 29.574 C 6.266 29.625,6.146 30.042,6.083 30.500 C 6.020 30.958,5.920 31.334,5.859 31.335 C 5.705 31.336,5.333 32.176,5.333 32.523 C 5.333 32.683,5.263 32.857,5.176 32.911 C 5.090 32.964,4.969 33.344,4.907 33.754 C 4.846 34.164,4.729 34.500,4.648 34.500 C 4.566 34.500,4.500 34.681,4.500 34.903 C 4.500 35.124,4.444 35.331,4.375 35.361 C 4.214 35.433,3.665 36.993,3.666 37.375 C 3.666 37.535,3.592 37.667,3.500 37.667 C 3.408 37.667,3.333 37.848,3.333 38.069 C 3.333 38.291,3.261 38.497,3.172 38.528 C 3.084 38.558,2.961 39.015,2.899 39.542 L 2.787 40.500 14.700 40.500 L 26.613 40.500 26.796 40.098 C 26.897 39.877,27.030 39.426,27.092 39.096 C 27.154 38.766,27.271 38.455,27.352 38.405 C 27.434 38.355,27.500 38.137,27.500 37.921 C 27.500 37.705,27.556 37.503,27.625 37.472 C 27.786 37.401,28.335 35.841,28.334 35.458 C 28.334 35.298,28.408 35.167,28.500 35.167 C 28.592 35.167,28.667 34.979,28.667 34.750 C 28.667 34.521,28.742 34.333,28.833 34.333 C 28.925 34.333,29.000 34.150,29.000 33.927 C 29.000 33.703,29.068 33.477,29.152 33.426 C 29.236 33.374,29.355 33.032,29.417 32.666 C 29.479 32.300,29.598 32.000,29.681 32.000 C 29.765 32.000,29.833 31.817,29.833 31.593 C 29.833 31.369,29.900 31.145,29.981 31.095 C 30.062 31.045,30.180 30.731,30.243 30.398 C 30.305 30.065,30.417 29.670,30.492 29.521 C 30.567 29.372,30.720 29.025,30.833 28.750 C 30.946 28.475,31.104 28.122,31.183 27.966 C 31.262 27.809,31.376 27.378,31.435 27.007 C 31.494 26.637,31.608 26.333,31.688 26.333 C 31.768 26.333,31.833 26.196,31.833 26.028 C 31.833 25.860,31.883 25.672,31.944 25.612 C 32.114 25.441,32.667 23.800,32.667 23.465 C 32.667 23.301,32.742 23.167,32.833 23.167 C 32.925 23.167,33.000 23.021,33.000 22.843 C 33.000 22.665,33.071 22.476,33.157 22.423 C 33.243 22.369,33.364 21.990,33.426 21.579 C 33.487 21.169,33.604 20.833,33.686 20.833 C 33.767 20.833,33.833 20.646,33.833 20.417 C 33.833 20.188,33.908 20.000,34.000 20.000 C 34.092 20.000,34.167 19.859,34.167 19.686 C 34.167 19.513,34.279 19.157,34.416 18.894 C 34.553 18.631,34.665 18.248,34.666 18.042 C 34.666 17.835,34.742 17.667,34.833 17.667 C 34.925 17.667,35.000 17.516,35.000 17.331 C 35.000 17.146,35.073 16.865,35.162 16.706 C 35.252 16.547,35.523 15.817,35.766 15.083 C 36.009 14.350,36.270 13.671,36.346 13.575 C 36.423 13.479,36.536 13.085,36.597 12.700 C 36.659 12.315,36.775 12.000,36.855 12.000 C 36.935 12.000,37.000 11.854,37.000 11.677 C 37.000 11.499,37.075 11.307,37.167 11.250 C 37.258 11.193,37.333 11.010,37.333 10.843 C 37.333 10.675,37.445 10.323,37.582 10.061 C 37.719 9.798,37.832 9.419,37.832 9.218 C 37.833 9.017,37.908 8.807,38.000 8.750 C 38.092 8.693,38.167 8.464,38.167 8.240 C 38.167 8.016,38.242 7.833,38.333 7.833 C 38.425 7.833,38.500 7.729,38.500 7.602 C 38.500 7.475,38.612 7.157,38.749 6.894 C 38.886 6.631,38.998 6.252,38.999 6.052 C 39.000 5.851,39.075 5.640,39.167 5.583 C 39.258 5.527,39.333 5.304,39.333 5.087 C 39.333 4.871,39.398 4.669,39.476 4.639 C 39.555 4.608,39.671 4.302,39.734 3.958 L 39.848 3.333 27.768 3.333 L 15.687 3.333 15.575 4.083 M193.244 3.542 C 193.200 3.656,193.183 11.925,193.207 21.917 L 193.250 40.083 207.378 40.126 L 221.505 40.169 221.461 35.459 L 221.417 30.750 212.625 30.707 L 203.833 30.664 203.833 16.999 L 203.833 3.333 198.578 3.333 C 194.527 3.333,193.305 3.381,193.244 3.542 M305.333 21.750 L 305.333 40.167 310.667 40.167 L 316.000 40.167 316.000 21.750 L 316.000 3.333 310.667 3.333 L 305.333 3.333 305.333 21.750 M320.910 3.542 C 320.867 3.656,320.850 11.925,320.874 21.917 L 320.917 40.083 326.208 40.127 L 331.500 40.171 331.500 30.636 L 331.500 21.102 332.083 21.738 C 332.404 22.089,332.667 22.422,332.667 22.479 C 332.668 22.537,332.893 22.823,333.167 23.116 C 333.442 23.409,333.667 23.709,333.667 23.783 C 333.668 23.856,333.934 24.217,334.260 24.583 C 334.585 24.950,335.035 25.458,335.259 25.711 C 335.483 25.965,335.667 26.231,335.667 26.301 C 335.667 26.372,335.920 26.699,336.229 27.026 C 336.538 27.354,336.819 27.697,336.854 27.788 C 336.944 28.026,337.838 29.159,338.375 29.717 C 338.627 29.978,338.833 30.251,338.833 30.322 C 338.833 30.393,339.021 30.654,339.250 30.901 C 339.479 31.148,339.667 31.387,339.667 31.432 C 339.667 31.526,339.921 31.842,340.458 32.417 C 340.665 32.638,340.833 32.862,340.833 32.916 C 340.833 33.025,341.065 33.318,341.625 33.917 C 341.831 34.138,342.000 34.390,342.000 34.479 C 342.000 34.567,342.059 34.664,342.131 34.694 C 342.203 34.725,342.522 35.087,342.840 35.500 C 343.157 35.912,343.548 36.371,343.708 36.519 C 343.869 36.668,344.000 36.842,344.000 36.906 C 344.000 36.971,344.094 37.128,344.208 37.256 C 344.462 37.539,344.610 37.728,345.245 38.583 C 345.517 38.950,345.873 39.395,346.037 39.573 C 346.200 39.751,346.333 39.958,346.333 40.034 C 346.333 40.110,348.452 40.152,351.042 40.128 L 355.750 40.083 355.750 21.750 L 355.750 3.417 350.583 3.417 L 345.417 3.417 345.374 12.575 L 345.330 21.733 344.665 20.998 C 344.299 20.594,344.000 20.223,344.000 20.173 C 343.999 20.124,343.775 19.821,343.500 19.500 C 343.225 19.179,343.001 18.864,343.000 18.799 C 343.000 18.735,342.831 18.509,342.625 18.298 C 342.419 18.087,342.027 17.615,341.755 17.249 C 341.483 16.883,341.183 16.480,341.088 16.354 C 340.994 16.229,340.673 15.865,340.375 15.546 C 340.077 15.227,339.833 14.917,339.833 14.857 C 339.833 14.796,339.646 14.544,339.417 14.297 C 339.188 14.050,339.000 13.785,339.000 13.709 C 339.000 13.632,338.737 13.291,338.417 12.951 C 338.096 12.611,337.833 12.266,337.833 12.184 C 337.833 12.102,337.571 11.804,337.250 11.522 C 336.929 11.241,336.667 10.906,336.667 10.778 C 336.667 10.651,336.479 10.406,336.250 10.234 C 336.021 10.062,335.833 9.842,335.833 9.745 C 335.833 9.649,335.580 9.301,335.271 8.974 C 334.962 8.646,334.681 8.303,334.646 8.212 C 334.556 7.974,333.662 6.841,333.125 6.283 C 332.873 6.022,332.667 5.756,332.667 5.694 C 332.667 5.631,332.479 5.378,332.250 5.131 C 332.021 4.883,331.831 4.622,331.828 4.549 C 331.826 4.476,331.602 4.173,331.331 3.875 L 330.838 3.333 325.914 3.333 C 322.128 3.333,320.971 3.381,320.910 3.542 M372.708 3.583 C 372.594 3.713,372.500 3.972,372.500 4.160 C 372.500 4.347,372.434 4.500,372.352 4.500 C 372.271 4.500,372.154 4.837,372.092 5.250 C 372.030 5.662,371.909 6.000,371.823 6.000 C 371.737 6.000,371.667 6.151,371.667 6.336 C 371.667 6.520,371.580 6.839,371.474 7.044 C 371.086 7.794,371.021 7.970,370.910 8.563 C 370.847 8.895,370.730 9.167,370.648 9.167 C 370.567 9.167,370.500 9.354,370.500 9.583 C 370.500 9.813,370.434 10.000,370.352 10.000 C 370.271 10.000,370.162 10.206,370.110 10.458 C 369.886 11.539,369.581 12.500,369.462 12.500 C 369.391 12.500,369.333 12.646,369.333 12.823 C 369.333 13.001,369.263 13.191,369.176 13.244 C 369.090 13.297,368.969 13.677,368.907 14.087 C 368.846 14.498,368.729 14.833,368.648 14.833 C 368.566 14.833,368.500 15.021,368.500 15.250 C 368.500 15.479,368.425 15.667,368.333 15.667 C 368.242 15.667,368.167 15.808,368.167 15.981 C 368.167 16.154,368.055 16.510,367.918 16.773 C 367.781 17.035,367.668 17.419,367.668 17.625 C 367.667 17.831,367.592 18.000,367.500 18.000 C 367.408 18.000,367.333 18.151,367.333 18.336 C 367.333 18.520,367.258 18.820,367.167 19.002 C 367.075 19.184,366.930 19.474,366.845 19.646 C 366.759 19.818,366.638 20.231,366.576 20.563 C 366.514 20.895,366.396 21.167,366.315 21.167 C 366.233 21.167,366.167 21.350,366.167 21.573 C 366.167 21.797,366.092 22.027,366.000 22.083 C 365.908 22.140,365.833 22.365,365.833 22.583 C 365.833 22.802,365.758 23.027,365.667 23.083 C 365.575 23.140,365.500 23.302,365.500 23.443 C 365.500 23.584,365.393 23.936,365.261 24.225 C 364.899 25.021,364.500 26.305,364.500 26.672 C 364.500 26.853,364.425 27.000,364.333 27.000 C 364.242 27.000,364.167 27.188,364.167 27.417 C 364.167 27.646,364.092 27.833,364.000 27.833 C 363.908 27.833,363.833 27.979,363.833 28.157 C 363.833 28.335,363.763 28.524,363.676 28.577 C 363.590 28.631,363.469 29.010,363.407 29.421 C 363.346 29.831,363.229 30.167,363.148 30.167 C 363.066 30.167,363.000 30.348,363.000 30.569 C 363.000 30.791,362.944 30.997,362.875 31.028 C 362.714 31.099,362.165 32.659,362.166 33.042 C 362.166 33.202,362.092 33.333,362.000 33.333 C 361.908 33.333,361.833 33.521,361.833 33.750 C 361.833 33.979,361.767 34.167,361.686 34.167 C 361.604 34.167,361.487 34.504,361.425 34.917 C 361.364 35.329,361.243 35.667,361.156 35.667 C 361.070 35.667,361.000 35.854,361.000 36.083 C 361.000 36.313,360.925 36.500,360.833 36.500 C 360.742 36.500,360.667 36.683,360.667 36.907 C 360.667 37.131,360.598 37.356,360.515 37.408 C 360.431 37.459,360.312 37.801,360.250 38.168 C 360.188 38.534,360.069 38.833,359.985 38.833 C 359.902 38.833,359.833 39.006,359.833 39.217 C 359.833 39.428,359.748 39.685,359.645 39.789 C 358.937 40.497,358.993 40.500,371.582 40.500 L 383.508 40.500 383.681 40.042 C 383.776 39.790,383.965 39.358,384.102 39.083 C 384.239 38.808,384.394 38.265,384.448 37.875 C 384.501 37.485,384.610 37.167,384.689 37.167 C 384.769 37.167,384.833 37.088,384.833 36.992 C 384.833 36.896,384.977 36.520,385.152 36.157 C 385.328 35.794,385.522 35.198,385.583 34.833 C 385.645 34.467,385.764 34.126,385.848 34.074 C 385.932 34.023,386.000 33.797,386.000 33.573 C 386.000 33.350,386.056 33.167,386.125 33.167 C 386.194 33.167,386.395 32.698,386.571 32.125 C 386.748 31.552,386.954 31.012,387.030 30.925 C 387.105 30.838,387.167 30.594,387.167 30.383 C 387.167 30.173,387.242 30.000,387.333 30.000 C 387.425 30.000,387.500 29.854,387.500 29.677 C 387.500 29.499,387.568 29.311,387.652 29.259 C 387.736 29.207,387.855 28.866,387.917 28.500 C 387.978 28.134,388.097 27.793,388.181 27.741 C 388.265 27.689,388.333 27.468,388.333 27.250 C 388.333 27.032,388.402 26.811,388.485 26.759 C 388.569 26.707,388.688 26.365,388.750 25.999 C 388.812 25.633,388.931 25.333,389.015 25.333 C 389.098 25.333,389.167 25.146,389.167 24.917 C 389.167 24.688,389.242 24.500,389.333 24.500 C 389.425 24.500,389.500 24.317,389.500 24.093 C 389.500 23.869,389.571 23.643,389.657 23.589 C 389.743 23.536,389.864 23.156,389.926 22.746 C 389.987 22.336,390.104 22.000,390.186 22.000 C 390.267 22.000,390.333 21.862,390.333 21.694 C 390.333 21.526,390.383 21.339,390.444 21.278 C 390.614 21.108,391.167 19.467,391.167 19.131 C 391.167 18.967,391.242 18.833,391.333 18.833 C 391.425 18.833,391.500 18.688,391.500 18.510 C 391.500 18.332,391.571 18.143,391.657 18.089 C 391.743 18.036,391.864 17.656,391.926 17.246 C 391.987 16.836,392.104 16.500,392.186 16.500 C 392.267 16.500,392.333 16.313,392.333 16.083 C 392.333 15.854,392.408 15.667,392.500 15.667 C 392.592 15.667,392.667 15.484,392.667 15.260 C 392.667 15.036,392.735 14.811,392.819 14.759 C 392.903 14.707,393.022 14.365,393.083 13.999 C 393.145 13.633,393.264 13.333,393.348 13.333 C 393.432 13.333,393.500 13.146,393.500 12.917 C 393.500 12.688,393.575 12.500,393.667 12.500 C 393.758 12.500,393.833 12.317,393.833 12.093 C 393.833 11.869,393.900 11.645,393.981 11.595 C 394.062 11.545,394.180 11.231,394.243 10.898 C 394.305 10.565,394.426 10.152,394.511 9.979 C 394.597 9.807,394.740 9.520,394.830 9.341 C 394.920 9.161,395.042 8.711,395.102 8.341 C 395.161 7.970,395.275 7.667,395.355 7.667 C 395.435 7.667,395.500 7.551,395.500 7.409 C 395.500 7.267,395.652 6.836,395.838 6.451 C 396.024 6.067,396.221 5.470,396.276 5.126 C 396.331 4.782,396.441 4.500,396.521 4.500 C 396.601 4.500,396.667 4.237,396.667 3.917 L 396.667 3.333 384.792 3.340 C 374.749 3.345,372.885 3.383,372.708 3.583 M244.000 12.333 C 244.000 12.425,244.220 12.500,244.489 12.500 C 245.061 12.500,246.939 13.275,247.406 13.704 C 247.584 13.867,247.794 14.000,247.873 14.000 C 248.051 14.000,249.468 15.442,249.917 16.081 C 250.100 16.342,250.345 16.651,250.461 16.768 C 250.576 16.885,250.717 17.212,250.774 17.494 C 250.830 17.776,250.942 18.047,251.022 18.097 C 251.101 18.146,251.167 18.326,251.167 18.496 C 251.167 18.666,251.260 18.837,251.375 18.875 C 251.655 18.968,251.670 24.102,251.392 24.683 C 250.952 25.605,250.667 26.312,250.667 26.484 C 250.667 26.584,250.592 26.667,250.500 26.667 C 250.408 26.667,250.333 26.779,250.333 26.917 C 250.333 27.054,250.258 27.167,250.167 27.167 C 250.075 27.167,250.000 27.272,250.000 27.402 C 250.000 27.679,248.291 29.500,248.031 29.500 C 247.933 29.500,247.754 29.640,247.634 29.811 C 247.515 29.982,247.173 30.175,246.875 30.241 C 246.577 30.306,246.333 30.429,246.333 30.513 C 246.333 30.598,246.152 30.667,245.931 30.667 C 245.709 30.667,245.497 30.760,245.458 30.875 C 245.407 31.030,244.730 31.083,242.833 31.083 C 240.937 31.083,240.260 31.030,240.208 30.875 C 240.170 30.760,239.958 30.667,239.736 30.667 C 239.515 30.667,239.333 30.592,239.333 30.500 C 239.333 30.408,239.193 30.333,239.020 30.333 C 238.848 30.333,238.614 30.221,238.500 30.083 C 238.386 29.946,238.189 29.833,238.063 29.833 C 237.937 29.833,237.833 29.770,237.833 29.693 C 237.833 29.616,237.570 29.411,237.249 29.238 C 236.928 29.065,236.623 28.790,236.571 28.628 C 236.520 28.466,236.410 28.333,236.327 28.333 C 236.159 28.333,235.000 26.585,235.000 26.330 C 235.000 26.240,234.925 26.167,234.833 26.167 C 234.742 26.167,234.666 26.035,234.666 25.875 C 234.665 25.715,234.553 25.369,234.416 25.106 C 234.279 24.843,234.167 24.450,234.167 24.231 C 234.167 24.012,234.092 23.833,234.000 23.833 C 233.575 23.833,233.846 19.489,234.333 18.495 C 234.401 18.354,234.511 17.998,234.575 17.703 C 234.640 17.408,234.762 17.167,234.847 17.167 C 234.931 17.167,235.000 17.017,235.000 16.833 C 235.000 16.650,235.059 16.500,235.131 16.500 C 235.203 16.500,235.387 16.287,235.541 16.027 C 235.926 15.374,237.016 14.275,237.645 13.903 C 237.932 13.734,238.167 13.536,238.167 13.464 C 238.167 13.392,238.249 13.333,238.350 13.333 C 238.529 13.333,239.461 12.958,240.039 12.653 C 240.199 12.569,240.555 12.500,240.831 12.500 C 241.107 12.500,241.333 12.425,241.333 12.333 C 241.333 12.236,241.889 12.167,242.667 12.167 C 243.444 12.167,244.000 12.236,244.000 12.333 " stroke="none" fill="#0095da" fill-rule="evenodd"></path><path id="path4" d="" stroke="none" fill="#00ffff" fill-rule="evenodd"></path></g></svg>